HIERARCHY
ROOT Hips
{
  OFFSET 279.157 85.6768 304.565
  CHANNELS 6 Xposition Yposition Zposition Zrotation Xrotation Yrotation
  JOINT LeftUpLeg
  {
    OFFSET 8.64259 1.95398 -2.38835
    CHANNELS 3 Zrotation Xrotation Yrotation
    JOINT LeftLeg
    {
      OFFSET 43.7702 0 0
      CHANNELS 3 Zrotation Xrotation Yrotation
      JOINT LeftFoot
      {
        OFFSET 40.6238 0 0
        CHANNELS 3 Zrotation Xrotation Yrotation
        JOINT LeftToeBase
        {
          OFFSET 12.7242 0 0
          CHANNELS 3 Zrotation Xrotation Yrotation
          End Site
          {
            OFFSET 0 0 0
          }
        }
      }
    }
  }
  JOINT RightUpLeg
  {
    OFFSET -8.2249 1.95398 -2.59336
    CHANNELS 3 Zrotation Xrotation Yrotation
    JOINT RightLeg
    {
      OFFSET 43.5653 0 0
      CHANNELS 3 Zrotation Xrotation Yrotation
      JOINT RightFoot
      {
        OFFSET 40.6238 0 0
        CHANNELS 3 Zrotation Xrotation Yrotation
        JOINT RightToeBase
        {
          OFFSET 12.7242 0 0
          CHANNELS 3 Zrotation Xrotation Yrotation
          End Site
          {
            OFFSET 0 0 0
          }
        }
      }
    }
  }
  JOINT Spine
  {
    OFFSET 0.165834 0.87714 6.61349
    CHANNELS 3 Zrotation Xrotation Yrotation
    JOINT Spine1
    {
      OFFSET 7.38963 1.71661e-005 0
      CHANNELS 3 Zrotation Xrotation Yrotation
      JOINT Spine2
      {
        OFFSET 11.9445 1.14441e-005 0
        CHANNELS 3 Zrotation Xrotation Yrotation
        JOINT Spine3
        {
          OFFSET 14.7254 4.19617e-005 0
          CHANNELS 3 Zrotation Xrotation Yrotation
          JOINT Spine4
          {
            OFFSET 10.9679 0 0
            CHANNELS 3 Zrotation Xrotation Yrotation
            JOINT RightShoulder
            {
              OFFSET 2.46616 -1.6653 3.69651
              CHANNELS 3 Zrotation Xrotation Yrotation
              JOINT RightArm
              {
                OFFSET 13.0012 0 0
                CHANNELS 3 Zrotation Xrotation Yrotation
                JOINT RightForeArm
                {
                  OFFSET 28.7848 1.52588e-005 0
                  CHANNELS 3 Zrotation Xrotation Yrotation
                  JOINT RightHand
                  {
                    OFFSET 26.5688 1.52588e-005 0
                    CHANNELS 3 Zrotation Xrotation Yrotation
                    End Site
                    {
                      OFFSET 0 0 0
                    }
                  }
                }
              }
            }
            JOINT LeftShoulder
            {
              OFFSET 2.38034 -1.29275 -3.7523
              CHANNELS 3 Zrotation Xrotation Yrotation
              JOINT LeftArm
              {
                OFFSET 16.3182 6.10351e-005 0
                CHANNELS 3 Zrotation Xrotation Yrotation
                JOINT LeftForeArm
                {
                  OFFSET 27.0901 0 0
                  CHANNELS 3 Zrotation Xrotation Yrotation
                  JOINT LeftHand
                  {
                    OFFSET 24.5451 1.52588e-005 0
                    CHANNELS 3 Zrotation Xrotation Yrotation
                    End Site
                    {
                      OFFSET 0 0 0
                    }
                  }
                }
              }
            }
            JOINT Neck
            {
              OFFSET 5.0226 -0.0266342 0
              CHANNELS 3 Zrotation Xrotation Yrotation
              JOINT Head
              {
                OFFSET 6.69364 2.86102e-005 0
                CHANNELS 3 Zrotation Xrotation Yrotation
                End Site
                {
                  OFFSET 0 0 0
                }
              }
            }
          }
        }
      }
    }
  }
}
MOTION
Frames:	7
Frame Time:	0.0416667
-310.813 97.535 289.927 -103.506 -44.6812 -102.139 -175.458 -4.83791 88.0444 -11.4722 17.1738 0.767003 66.4936 4.75094 0.0585354 13.0478 -11.8923 7.49611 174.007 -3.27541 87.7696 -16.7973 -11.8948 -2.27615 66.5222 -3.66288 -0.475917 27.0687 -0.128686 4.96 -0.299502 8.90525 -89.6824 9.06434 -0.455499 0.660752 -2.6067 -0.425973 0.680157 -25.1417 -0.633009 0.49331 -5.12902 -0.633031 0.493317 77.1403 -29.2131 -131.604 33.9443 -2.53606 -6.70408 -6.33287 -10.6682 -3.05688 -14.8122 1.22625 -20.0165 -84.7121 -48.1509 86.4384 -23.3834 15.493 -14.4678 -1.5954 -15.4236 -10.3968 9.08291 -0.0635984 -4.10142 6.50304 19.9992 3.20186 -4.78648 18.9094 5.30221 
-310.854 97.554 289.937 -103.451 -44.7654 -102.065 -175.409 -4.80349 88.1091 -11.5345 16.9969 0.745673 66.8985 4.92493 -0.315889 12.7901 -11.6672 6.60746 174.016 -3.39923 87.8345 -16.5529 -11.9785 -2.25251 66.5092 -3.70978 -0.662884 26.8148 -0.0455158 4.90507 -0.269298 8.8882 -89.7032 9.09821 -0.404396 0.616272 -2.57281 -0.376895 0.63347 -25.1077 -0.570916 0.466243 -5.09508 -0.570914 0.466243 77.5089 -29.4086 -130.804 33.9803 -2.87996 -6.61274 -6.01971 -10.6959 -3.53226 -15.1321 1.25008 -19.9107 -84.78 -48.3171 86.3554 -22.6665 16.1394 -14.873 -2.00873 -16.3807 -10.0103 9.29259 -0.0906247 -4.37143 6.69904 19.8101 3.21382 -5.29991 18.6875 5.14522 
-310.978 97.5486 290.002 -103.378 -44.9163 -101.965 -175.331 -4.83387 88.2436 -11.4176 17.3115 0.71609 66.829 4.9248 -0.11561 13.4638 -11.103 6.33057 174.107 -3.6153 87.9625 -16.1963 -11.8029 -2.27406 66.492 -3.68964 -0.674215 26.8684 -0.0585824 4.88553 -0.161833 8.86658 -89.7854 9.14095 -0.226781 0.441165 -2.53005 -0.20714 0.450709 -25.0649 -0.348883 0.35262 -5.05229 -0.34889 0.352607 79.175 -29.3577 -127.813 34.7245 -3.66937 -6.78413 -5.26679 -11.4411 -4.34907 -15.9246 1.22053 -19.2671 -85.5258 -49.4951 85.3765 -21.5448 16.1113 -14.9327 -2.1318 -15.3898 -10.078 9.29244 -0.0804377 -4.27045 2.69697 17.6496 6.17445 3.48116 16.71 4.80934 
-311.205 97.5669 290.145 -103.271 -45.2395 -101.75 -175.171 -4.83986 88.534 -11.3704 17.8599 0.687827 66.8194 4.91641 -0.0757092 13.847 -10.9367 6.5248 174.155 -3.91995 88.1855 -15.7297 -11.5931 -2.1732 66.411 -3.69194 -0.911153 26.7881 -0.066165 5.10144 -0.0135766 8.78111 -89.8673 9.31154 0.0325258 0.260543 -2.35942 0.0439589 0.258854 -24.8944 -0.0472791 0.258281 -4.88173 -0.047276 0.258272 81.3638 -29.3408 -123.769 36.3966 -4.34159 -6.79168 -4.43814 -12.594 -5.36668 -17.2648 1.17384 -18.2889 -86.7451 -50.0485 83.6179 -20.891 16.1966 -14.9138 -2.17313 -13.8483 -9.25377 8.55796 -0.125783 -4.73766 -5.43353 13.3699 8.82136 20.3578 13.5684 6.86634 
-311.499 97.582 290.315 -103.12 -45.6523 -101.395 -174.945 -4.76176 88.9694 -11.5208 18.2908 0.677777 67.2084 5.08351 -0.201635 13.3371 -11.2918 6.57275 174.326 -4.4442 88.5764 -14.8727 -11.0418 -2.08327 66.3798 -3.71369 -0.887538 26.5879 0.0102074 4.98406 0.152402 8.64193 -89.9545 9.58994 0.324381 0.0652144 -2.08097 0.326942 0.0508595 -24.6164 0.289764 0.159681 -4.60373 0.289791 0.159687 83.6988 -29.5114 -119.257 38.0978 -5.34955 -6.31014 -3.16577 -14.0993 -6.76464 -18.9608 1.07193 -16.9666 -87.8102 -50.0419 82.0165 -21.0719 15.9003 -14.4401 -1.99521 -11.3502 -8.55512 7.65246 -0.186858 -5.46826 -6.94411 12.1389 8.71139 21.4983 12.6115 7.05606 
-311.871 97.6275 290.487 -102.955 -46.0267 -101.025 -174.706 -4.78082 89.4545 -11.4853 18.8116 0.685234 67.2243 4.99189 -0.365129 13.6802 -11.1186 6.6915 174.519 -5.01889 89.0162 -13.992 -10.5858 -2.00037 66.3108 -3.74272 -0.991181 26.1352 0.157239 4.89924 0.351084 8.51115 -90.0706 9.85221 0.667899 -0.193634 -1.81858 0.658727 -0.22284 -24.3551 0.695207 0.0160624 -4.34245 0.695214 0.0160661 86.7622 -29.1263 -113.525 40.482 -6.29502 -5.8907 -2.09637 -16.4146 -8.39228 -20.3485 0.880176 -15.8079 -89.2072 -50.8449 80.0834 -20.8037 15.3986 -13.958 -1.71529 -8.40331 -8.09073 6.36249 -0.200376 -5.80881 -3.82332 12.5773 8.21888 12.3348 12.2434 5.98962 
-312.313 97.6357 290.592 -102.94 -46.2512 -100.576 -174.236 -4.67859 90.2592 -11.9161 19.6258 0.607343 67.4243 5.06632 -0.244575 14.0822 -10.7887 6.53791 174.819 -5.55067 89.6502 -13.4242 -9.96644 -1.86338 66.2809 -3.81565 -0.888366 25.8859 0.22655 4.93139 0.587898 8.42909 -90.2449 10.0186 1.06028 -0.573718 -1.65201 1.034 -0.61984 -24.1904 1.18368 -0.228501 -4.17777 1.18369 -0.228501 90.494 -27.829 -106.603 43.0448 -8.14841 -5.88797 -0.561946 -19.2809 -9.91181 -22.8989 0.615216 -14.0108 -91.0068 -52.2143 77.7271 -19.8056 15.2398 -13.9371 -1.80306 -5.98981 -7.44596 5.58923 -0.232459 -6.41108 1.58221 12.6711 8.19525 0.57776 11.3052 1.71005 
